<svg width="115" height="36" viewBox="0 0 115 36" fill="none" xmlns="http://www.w3.org/2000/svg">
<path d="M18 0C16.5964 0 15.2303 0.160642 13.9197 0.465194C7.25502 2.00937 2.00937 7.25502 0.465194 13.919C0.160642 15.2303 0 16.5964 0 18C0 27.9411 8.0589 36 18 36C19.4036 36 20.7697 35.8394 22.081 35.5348C28.745 33.9906 33.9906 28.7456 35.5355 22.0823C35.84 20.7711 36.0007 19.4043 36.0007 18C36.0007 8.0589 27.9411 0 18 0ZM18 29.2724C16.6714 29.2724 15.3969 29.0428 14.2135 28.6205C11.0341 27.4866 8.51406 24.9665 7.38019 21.7871C6.95783 20.6037 6.72825 19.3286 6.72825 18C6.72825 11.7744 11.7744 6.72758 18 6.72758C19.3286 6.72758 20.6031 6.95716 21.7865 7.37952C24.9659 8.51339 27.4866 11.0335 28.6205 14.2129C29.0428 15.3963 29.2724 16.6714 29.2724 18C29.2724 24.2256 24.2256 29.2724 18 29.2724Z" fill="url(#paint0_linear_4005_223)"/>
<path d="M18 10.7349C13.988 10.7349 10.735 13.9879 10.735 17.9999C10.735 22.012 13.988 25.265 18 25.265C22.0121 25.265 25.2651 22.012 25.2651 17.9999C25.2651 13.9879 22.0128 10.7349 18 10.7349ZM18 22.3928C15.5743 22.3928 13.6071 20.4263 13.6071 17.9999C13.6071 15.5736 15.5743 13.607 18 13.607C20.4257 13.607 22.393 15.5736 22.393 17.9999C22.393 20.4263 20.4264 22.3928 18 22.3928Z" fill="#FEFCFE"/>
<path d="M21.7865 7.37966C20.6031 6.9573 19.3287 6.72771 18 6.72771C11.7744 6.72771 6.72826 11.7746 6.72826 18.0001C6.72826 19.3288 6.95785 20.6039 7.3802 21.7873C5.94178 21.2438 4.59305 20.393 3.43509 19.2351C1.91568 17.7157 0.925719 15.8676 0.46521 13.9191C2.00939 7.25516 7.25504 2.00951 13.9197 0.465332C15.8675 0.925841 17.7155 1.9158 19.235 3.43521C20.3923 4.59251 21.243 5.94124 21.7865 7.37966Z" fill="url(#paint1_linear_4005_223)"/>
<path d="M35.5355 22.0824C33.9906 28.7457 28.745 33.9907 22.081 35.5348C20.1332 35.0743 18.2851 34.0844 16.7657 32.565C15.6077 31.407 14.757 30.0583 14.2135 28.6205C15.3969 29.0429 16.6713 29.2725 18 29.2725C24.2256 29.2725 29.2724 24.2256 29.2724 18C29.2724 16.6714 29.0428 15.3963 28.6205 14.2129C30.0582 14.7564 31.4069 15.6071 32.5649 16.7651C34.0843 18.2845 35.0749 20.1339 35.5355 22.0824Z" fill="url(#paint2_linear_4005_223)"/>
<path d="M9.09641 30.6713C11.1769 30.6713 12.8635 28.9848 12.8635 26.9043C12.8635 24.8238 11.1769 23.1372 9.09641 23.1372C7.01592 23.1372 5.32935 24.8238 5.32935 26.9043C5.32935 28.9848 7.01592 30.6713 9.09641 30.6713Z" fill="url(#paint3_linear_4005_223)"/>
<path d="M26.9371 12.8305C29.0176 12.8305 30.7042 11.1439 30.7042 9.06346C30.7042 6.98296 29.0176 5.29639 26.9371 5.29639C24.8566 5.29639 23.17 6.98296 23.17 9.06346C23.17 11.1439 24.8566 12.8305 26.9371 12.8305Z" fill="url(#paint4_linear_4005_223)"/>
<path d="M114.76 14.6088V16.5974H108.489V14.6088H114.76ZM110.037 11.9951H112.608V22.2366C112.608 22.5822 112.66 22.8474 112.765 23.032C112.873 23.212 113.016 23.3351 113.191 23.4014C113.366 23.4677 113.56 23.5008 113.773 23.5008C113.934 23.5008 114.081 23.489 114.213 23.4653C114.351 23.4416 114.455 23.4203 114.526 23.4014L114.959 25.4113C114.822 25.4587 114.625 25.5107 114.37 25.5676C114.119 25.6244 113.811 25.6575 113.446 25.667C112.802 25.6859 112.222 25.5889 111.706 25.3758C111.19 25.158 110.781 24.8218 110.478 24.3673C110.179 23.9127 110.033 23.3445 110.037 22.6627V11.9951Z" fill="#D4D4D8"/>
<path d="M104.098 25.5176V14.6085H106.669V25.5176H104.098ZM105.391 13.0602C104.983 13.0602 104.633 12.9253 104.34 12.6554C104.046 12.3808 103.899 12.0517 103.899 11.6682C103.899 11.2799 104.046 10.9509 104.34 10.681C104.633 10.4064 104.983 10.269 105.391 10.269C105.803 10.269 106.153 10.4064 106.442 10.681C106.735 10.9509 106.882 11.2799 106.882 11.6682C106.882 12.0517 106.735 12.3808 106.442 12.6554C106.153 12.9253 105.803 13.0602 105.391 13.0602Z" fill="#D4D4D8"/>
<path d="M91.614 25.5176V10.9722H94.185V16.4125H94.2916C94.4241 16.1474 94.6112 15.8656 94.8526 15.5673C95.0941 15.2643 95.4208 15.0063 95.8328 14.7932C96.2447 14.5754 96.7703 14.4665 97.4095 14.4665C98.2523 14.4665 99.0122 14.6819 99.6893 15.1128C100.371 15.5389 100.911 16.171 101.309 17.0091C101.711 17.8424 101.912 18.8652 101.912 20.0773C101.912 21.2752 101.716 22.2932 101.323 23.1313C100.93 23.9693 100.395 24.6085 99.7177 25.0489C99.0406 25.4892 98.2736 25.7094 97.4166 25.7094C96.7916 25.7094 96.2731 25.6052 95.8612 25.3969C95.4492 25.1886 95.1178 24.9376 94.8669 24.644C94.6206 24.3457 94.4289 24.064 94.2916 23.7989H94.1424V25.5176H91.614ZM94.1353 20.0631C94.1353 20.7686 94.2348 21.3865 94.4336 21.9168C94.6372 22.4471 94.9284 22.8614 95.3072 23.1597C95.6907 23.4532 96.1547 23.6 96.6992 23.6C97.2674 23.6 97.7433 23.4485 98.1268 23.1455C98.5103 22.8377 98.7991 22.4187 98.9933 21.8884C99.1921 21.3533 99.2916 20.7449 99.2916 20.0631C99.2916 19.386 99.1945 18.7847 99.0004 18.2591C98.8062 17.7335 98.5174 17.3216 98.1339 17.0233C97.7504 16.725 97.2722 16.5759 96.6992 16.5759C96.15 16.5759 95.6836 16.7203 95.3001 17.0091C94.9166 17.2979 94.6254 17.7028 94.4265 18.2236C94.2324 18.7444 94.1353 19.3576 94.1353 20.0631Z" fill="#D4D4D8"/>
<path d="M83.5707 25.5175V14.6084H86.0636V16.4266H86.1772C86.3761 15.7968 86.717 15.3115 87.1999 14.9706C87.6876 14.625 88.244 14.4521 88.869 14.4521C89.011 14.4521 89.1696 14.4593 89.3448 14.4735C89.5247 14.4829 89.6739 14.4995 89.7923 14.5232V16.8882C89.6834 16.8503 89.5105 16.8172 89.2738 16.7888C89.0418 16.7557 88.8169 16.7391 88.5991 16.7391C88.1303 16.7391 87.7089 16.8409 87.3349 17.0445C86.9656 17.2433 86.6744 17.5203 86.4613 17.8754C86.2482 18.2306 86.1417 18.6401 86.1417 19.1041V25.5175H83.5707Z" fill="#D4D4D8"/>
<path d="M76.1612 25.7305C75.0959 25.7305 74.1726 25.4961 73.3913 25.0274C72.6101 24.5586 72.004 23.9029 71.5732 23.0601C71.147 22.2173 70.934 21.2324 70.934 20.1055C70.934 18.9786 71.147 17.9914 71.5732 17.1439C72.004 16.2963 72.6101 15.6382 73.3913 15.1694C74.1726 14.7007 75.0959 14.4663 76.1612 14.4663C77.2266 14.4663 78.1499 14.7007 78.9311 15.1694C79.7124 15.6382 80.3161 16.2963 80.7422 17.1439C81.1731 17.9914 81.3885 18.9786 81.3885 20.1055C81.3885 21.2324 81.1731 22.2173 80.7422 23.0601C80.3161 23.9029 79.7124 24.5586 78.9311 25.0274C78.1499 25.4961 77.2266 25.7305 76.1612 25.7305ZM76.1754 23.6709C76.7531 23.6709 77.236 23.5122 77.6243 23.195C78.0126 22.873 78.3014 22.4422 78.4908 21.9024C78.6849 21.3626 78.782 20.7613 78.782 20.0984C78.782 19.4308 78.6849 18.8271 78.4908 18.2873C78.3014 17.7428 78.0126 17.3096 77.6243 16.9876C77.236 16.6656 76.7531 16.5047 76.1754 16.5047C75.5836 16.5047 75.0912 16.6656 74.6982 16.9876C74.3099 17.3096 74.0187 17.7428 73.8246 18.2873C73.6352 18.8271 73.5405 19.4308 73.5405 20.0984C73.5405 20.7613 73.6352 21.3626 73.8246 21.9024C74.0187 22.4422 74.3099 22.873 74.6982 23.195C75.0912 23.5122 75.5836 23.6709 76.1754 23.6709Z" fill="#D4D4D8"/>
<path d="M67.1858 25.6738C66.7549 25.6738 66.3856 25.5223 66.0778 25.2192C65.7701 24.9162 65.6185 24.5469 65.6233 24.1113C65.6185 23.6851 65.7701 23.3206 66.0778 23.0175C66.3856 22.7145 66.7549 22.563 67.1858 22.563C67.6024 22.563 67.9647 22.7145 68.2724 23.0175C68.5849 23.3206 68.7435 23.6851 68.7483 24.1113C68.7435 24.4001 68.6678 24.6629 68.521 24.8996C68.379 25.1364 68.1896 25.3258 67.9528 25.4678C67.7208 25.6051 67.4651 25.6738 67.1858 25.6738Z" fill="#D4D4D8"/>
<path d="M55.9855 19.1254V25.5174H53.4144V14.6084H55.8718V16.462H55.9997C56.2506 15.8513 56.6507 15.3659 57.1999 15.0061C57.7539 14.6462 58.4381 14.4663 59.2525 14.4663C60.0053 14.4663 60.6611 14.6273 61.2198 14.9493C61.7833 15.2712 62.2189 15.7376 62.5266 16.3484C62.8391 16.9592 62.993 17.7002 62.9883 18.5714V25.5174H60.4173V18.9691C60.4173 18.24 60.2279 17.6694 59.8491 17.2575C59.475 16.8456 58.9566 16.6396 58.2937 16.6396C57.8439 16.6396 57.4438 16.739 57.0934 16.9379C56.7478 17.132 56.4755 17.4138 56.2766 17.7831C56.0825 18.1524 55.9855 18.5998 55.9855 19.1254Z" fill="#D4D4D8"/>
<path d="M48.1996 25.5176V14.6085H50.7706V25.5176H48.1996ZM49.4922 13.0602C49.085 13.0602 48.7346 12.9253 48.4411 12.6554C48.1475 12.3808 48.0007 12.0517 48.0007 11.6682C48.0007 11.2799 48.1475 10.9509 48.4411 10.681C48.7346 10.4064 49.085 10.269 49.4922 10.269C49.9041 10.269 50.2545 10.4064 50.5433 10.681C50.8369 10.9509 50.9837 11.2799 50.9837 11.6682C50.9837 12.0517 50.8369 12.3808 50.5433 12.6554C50.2545 12.9253 49.9041 13.0602 49.4922 13.0602Z" fill="#D4D4D8"/>
<defs>
<linearGradient id="paint0_linear_4005_223" x1="30.5556" y1="6.13588" x2="5.83534" y2="29.4953" gradientUnits="userSpaceOnUse">
<stop stop-color="#F38856"/>
<stop offset="0.23" stop-color="#F0625C"/>
<stop offset="1" stop-color="#5C3DAB"/>
</linearGradient>
<linearGradient id="paint1_linear_4005_223" x1="16.8608" y1="3.05168" x2="2.79988" y2="17.037" gradientUnits="userSpaceOnUse">
<stop stop-color="#F67986"/>
<stop offset="1" stop-color="#8951BA"/>
</linearGradient>
<linearGradient id="paint2_linear_4005_223" x1="32.9424" y1="19.2196" x2="18.8815" y2="33.2055" gradientUnits="userSpaceOnUse">
<stop stop-color="#F67986"/>
<stop offset="1" stop-color="#8951BA"/>
</linearGradient>
<linearGradient id="paint3_linear_4005_223" x1="11.8467" y1="24.3306" x2="6.34541" y2="29.4779" gradientUnits="userSpaceOnUse">
<stop stop-color="#A267B9"/>
<stop offset="1" stop-color="#704BB4"/>
</linearGradient>
<linearGradient id="paint4_linear_4005_223" x1="29.2269" y1="6.92022" x2="25.4712" y2="10.4349" gradientUnits="userSpaceOnUse">
<stop stop-color="#F7A8A5"/>
<stop offset="0.97" stop-color="#D074C4"/>
<stop offset="1" stop-color="#CF76A9"/>
</linearGradient>
</defs>
</svg>
